#!OML:ASF H:\Dans Jumps\Project 1\Capture day 1\Session 1\subject.ASF
:FULLY-SPECIFIED
:DEGREES
621
root 0.392086 17.7096 10.9187 5.85986 -0.168648 -1.2688
lowerback -3.63786 0.119647 0.131214
upperback 2.69695 0.0913417 1.36807
thorax 4.82548 0.0247159 1.34852
lowerneck -12.5793 0.564929 -1.13857
upperneck 27.9192 1.05322 0.144718
head 11.0888 0.378361 0.38679
rclavicle 8.94531e-016 3.97569e-016
rhumerus -20.7207 -14.2521 -81.8647
rradius 28.1328
rwrist 31.3276
rhand -19.3116 -27.1717
rfingers 7.12502
rthumb 7.00434 -57.0358
lclavicle 8.94531e-016 3.97569e-016
lhumerus -20.3275 -7.07953 92.9167
lradius 21.4625
lwrist 7.73264
lhand -23.6774 -6.59942
lfingers 7.12502
lthumb 2.78891 23.3621
rfemur -13.314 -1.64296 20.1238
rtibia 20.8708
rfoot -13.164 0.546704
rtoes 14.141
lfemur -11.0409 6.34929 -17.5113
ltibia 17.5872
lfoot -9.79369 4.4709
ltoes -8.28188
622
root 0.39212 17.7097 10.9217 5.87495 -0.175076 -1.2515
lowerback -3.64747 0.120982 0.0981417
upperback 2.68585 0.0953382 1.36261
thorax 4.81923 0.0257374 1.36172
lowerneck -12.5574 0.561894 -1.14111
upperneck 27.9405 1.04868 0.147096
head 11.0925 0.376222 0.387487
rclavicle 3.32964e-015 1.51076e-014
rhumerus -20.8164 -14.273 -81.9103
rradius 28.0714
rwrist 31.3688
rhand -19.2603 -27.0857
rfingers 7.12502
rthumb 7.05384 -56.9481
lclavicle 3.32964e-015 1.51076e-014
lhumerus -20.3034 -7.07104 92.8678
lradius 21.4389
lwrist 7.78372
lhand -23.57 -6.3985
lfingers 7.12502
lthumb 2.8926 23.5616
rfemur -13.3314 -1.64916 20.1071
rtibia 20.8913
rfoot -13.1813 0.541751
rtoes 14.0988
lfemur -11.0193 6.31997 -17.5291
ltibia 17.5423
lfoot -9.78453 4.49576
ltoes -8.25824
623
root 0.392023 17.7099 10.9246 5.8962 -0.187556 -1.24283
lowerback -3.66685 0.122143 0.071296
upperback 2.67872 0.0984815 1.36002
thorax 4.82272 0.0264496 1.37442
lowerneck -12.5396 0.559954 -1.16301
upperneck 27.9582 1.04502 0.168438
head 11.0954 0.374753 0.398522
rclavicle -1.68967e-015 -8.15017e-015
rhumerus -20.909 -14.2892 -81.959
rradius 28.0061
rwrist 31.4063
rhand -19.2114 -26.9953
rfingers 7.12502
rthumb 7.10105 -56.8562
lclavicle -1.68967e-015 -8.15017e-015
lhumerus -20.2747 -7.04897 92.8097
lradius 21.3704
lwrist 7.77561
lhand -23.5822 -6.37338
lfingers 7.12502
lthumb 2.88088 23.5869
rfemur -13.3542 -1.64838 20.0999
rtibia 20.9055
rfoot -13.1934 0.538072
rtoes 14.0644
lfemur -11.01 6.30064 -17.5384
ltibia 17.5073
lfoot -9.77783 4.51975
ltoes -8.23339
624
root 0.391936 17.7099 10.9274 5.91544 -0.199315 -1.23972
lowerback -3.68352 0.122323 0.0500864
upperback 2.6749 0.0999334 1.35842
thorax 4.82816 0.0264772 1.38484
lowerneck -12.5309 0.558897 -1.17781
upperneck 27.9753 1.04296 0.182867
head 11.1 0.373892 0.406076
rclavicle 1.63997e-015 7.35503e-015
rhumerus -21.003 -14.309 -82.0086
rradius 27.9355
rwrist 31.4424
rhand -19.1672 -26.9074
rfingers 7.12502
rthumb 7.14374 -56.7668
lclavicle 1.63997e-015 7.35503e-015
lhumerus -20.2416 -6.98029 92.7326
lradius 21.2852
lwrist 7.73174
lhand -23.6093 -6.37168
lfingers 7.12502
lthumb 2.85464 23.589
rfemur -13.3722 -1.64606 20.0984
rtibia 20.9147
rfoot -13.2032 0.533879
rtoes 14.0328
lfemur -11.0028 6.28471 -17.5415
ltibia 17.4805
lfoot -9.77515 4.5418
ltoes -8.20551
625
root 0.391883 17.7099 10.9303 5.93286 -0.210993 -1.23815
lowerback -3.69709 0.121896 0.0308376
upperback 2.67238 0.100493 1.35642
thorax 4.83324 0.026132 1.39368
lowerneck -12.5244 0.559181 -1.18662
upperneck 27.9904 1.04295 0.191734
head 11.1043 0.373913 0.410847
rclavicle 1.04362e-015 3.57812e-015
rhumerus -21.103 -14.3339 -82.0567
rradius 27.8615
rwrist 31.4738
rhand -19.121 -26.8293
rfingers 7.12502
rthumb 7.18838 -56.6872
lclavicle 1.04362e-015 3.57812e-015
lhumerus -20.2125 -6.84148 92.6346
lradius 21.1936
lwrist 7.63924
lhand -23.6296 -6.36441
lfingers 7.12502
lthumb 2.83507 23.5965
rfemur -13.3861 -1.64508 20.0981
rtibia 20.9207
rfoot -13.2125 0.532337
rtoes 14.0054
lfemur -10.9962 6.27288 -17.543
ltibia 17.4598
lfoot -9.77659 4.56188
ltoes -8.1836
626
root 0.391831 17.7099 10.933 5.94919 -0.222714 -1.23556
lowerback -3.71019 0.12197 0.0118437
upperback 2.6749 0.101778 1.35176
thorax 4.84327 0.0261682 1.39971
lowerneck -12.5263 0.559197 -1.191
upperneck 28.0029 1.04193 0.199291
head 11.1094 0.373787 0.414279
rclavicle 5.36719e-015 5.1684e-015
rhumerus -21.1998 -14.3747 -82.1055
rradius 27.7813
rwrist 31.5089
rhand -19.0663 -26.7702
rfingers 7.12502
rthumb 7.24118 -56.6263
lclavicle 5.36719e-015 5.1684e-015
lhumerus -20.1848 -6.63101 92.5145
lradius 21.1029
lwrist 7.49115
lhand -23.6398 -6.3447
lfingers 7.12502
lthumb 2.8252 23.6163
rfemur -13.3983 -1.6432 20.0965
rtibia 20.9247
rfoot -13.2204 0.530926
rtoes 13.9813
lfemur -10.991 6.26248 -17.5457
ltibia 17.443
lfoot -9.77967 4.5808
ltoes -8.16808
627
root 0.391759 17.7099 10.9355 5.96324 -0.233391 -1.2334
lowerback -3.72087 0.12258 -0.00577411
upperback 2.68206 0.103766 1.34494
thorax 4.85675 0.0266095 1.4028
lowerneck -12.5335 0.561185 -1.18784
upperneck 28.0138 1.04286 0.203716
head 11.1149 0.374955 0.41555
rclavicle 1.19271e-015 1.0138e-014
rhumerus -21.2948 -14.4331 -82.1532
rradius 27.6954
rwrist 31.5503
rhand -19.0019 -26.7273
rfingers 7.12502
rthumb 7.30332 -56.5812
lclavicle 1.19271e-015 1.0138e-014
lhumerus -20.1572 -6.35621 92.3742
lradius 21.014
lwrist 7.29503
lhand -23.6403 -6.29712
lfingers 7.12502
lthumb 2.82475 23.6639
rfemur -13.4077 -1.63956 20.0954
rtibia 20.9267
rfoot -13.228 0.527065
rtoes 13.9499
lfemur -10.9852 6.25245 -17.5474
ltibia 17.4282
lfoot -9.78559 4.59666
ltoes -8.14306
628
root 0.391581 17.71 10.9377 5.97479 -0.245201 -1.23463
lowerback -3.72623 0.124173 -0.0203517
upperback 2.69131 0.106938 1.33751
thorax 4.86936 0.0277464 1.40363
lowerneck -12.541 0.565386 -1.18313
upperneck 28.0262 1.0464 0.208802
head 11.1211 0.377543 0.417145
rclavicle -9.93923e-017 8.34896e-015
rhumerus -21.3901 -14.5063 -82.1979
rradius 27.6001
rwrist 31.6016
rhand -18.9346 -26.6847
rfingers 7.12502
rthumb 7.36829 -56.5364
lclavicle -9.93923e-017 8.34896e-015
lhumerus -20.1319 -6.05254 92.2208
lradius 20.919
lwrist 7.07596
lhand -23.6518 -6.25031
lfingers 7.12502
lthumb 2.81368 23.7109
rfemur -13.415 -1.62913 20.0983
rtibia 20.9273
rfoot -13.2339 0.518751
rtoes 13.9246
lfemur -10.979 6.24469 -17.5445
ltibia 17.4146
lfoot -9.79097 4.61108
ltoes -8.13149
629
root 0.39151 17.7101 10.9399 5.98234 -0.254473 -1.23956
lowerback -3.73169 0.124392 -0.0293506
upperback 2.70592 0.107892 1.33003
thorax 4.88769 0.027931 1.40114
lowerneck -12.5489 0.570341 -1.18286
upperneck 28.0406 1.05083 0.218386
head 11.128 0.380595 0.421269
rclavicle -5.96354e-016 4.37326e-015
rhumerus -21.485 -14.5849 -82.2413
rradius 27.5017
rwrist 31.6624
rhand -18.8521 -26.656
rfingers 7.12502
rthumb 7.44786 -56.5049
lclavicle -5.96354e-016 4.37326e-015
lhumerus -20.1041 -5.74114 92.0582
lradius 20.8167
lwrist 6.85463
lhand -23.6817 -6.18451
lfingers 7.12502
lthumb 2.78477 23.7771
rfemur -13.4159 -1.62496 20.1048
rtibia 20.9262
rfoot -13.2407 0.515681
rtoes 13.9075
lfemur -10.9688 6.23822 -17.5375
ltibia 17.4018
lfoot -9.79876 4.62136
ltoes -8.11394
